<svg width="23" height="22" viewBox="0 0 23 22" fill="none" xmlns="http://www.w3.org/2000/svg">
<path d="M1.60413 13.2123C1.60413 10.882 1.60413 9.7168 2.08432 8.70169C2.09772 8.67336 2.11139 8.64516 2.12532 8.61709C2.62451 7.61118 3.53903 6.88919 5.36806 5.44522V5.44522C8.27843 3.14756 9.73361 1.99874 11.4303 1.97511C11.4768 1.97446 11.5232 1.97446 11.5696 1.97511C13.2663 1.99874 14.7215 3.14756 17.6319 5.44522V5.44522C19.4609 6.88919 20.3754 7.61118 20.8746 8.61709C20.8885 8.64516 20.9022 8.67336 20.9156 8.70169C21.3958 9.7168 21.3958 10.882 21.3958 13.2123V14.9167C21.3958 17.7452 21.3958 19.1594 20.5171 20.0381C19.6384 20.9167 18.2242 20.9167 15.3958 20.9167H11.5H7.60413C4.7757 20.9167 3.36149 20.9167 2.48281 20.0381C1.60413 19.1594 1.60413 17.7452 1.60413 14.9167V13.2123Z" stroke="#E2E2E2" stroke-width="2"/>
<path d="M14.625 20.9167C14.625 20.5064 14.5442 20.1 14.3871 19.7209C14.2301 19.3417 13.9999 18.9972 13.7097 18.707C13.4195 18.4169 13.075 18.1867 12.6959 18.0296C12.3167 17.8726 11.9104 17.7917 11.5 17.7917C11.0896 17.7917 10.6833 17.8726 10.3041 18.0296C9.92497 18.1867 9.58047 18.4169 9.29029 18.707C9.00011 18.9972 8.76992 19.3417 8.61288 19.7209C8.45583 20.1 8.375 20.5064 8.375 20.9167L11.5 20.9167H14.625Z" stroke="#E2E2E2" stroke-width="2"/>
</svg>
