<svg width="21" height="19" viewBox="0 0 21 19" fill="none" xmlns="http://www.w3.org/2000/svg">
<path fill-rule="evenodd" clip-rule="evenodd" d="M1.02785 6.88315C0.604187 7.86832 0.604187 8.98298 0.604187 11.2123V12.6668C0.604187 15.613 0.604187 17.0862 1.51948 18.0015C2.41294 18.8949 3.83795 18.9162 6.64585 18.9167C6.71447 18.9168 6.78391 18.9168 6.85419 18.9168H14.1459C14.2161 18.9168 14.2856 18.9168 14.3542 18.9167C17.1621 18.9162 18.5871 18.8949 19.4806 18.0015C20.3959 17.0862 20.3959 15.613 20.3959 12.6668V11.2123C20.3959 8.98298 20.3959 7.86832 19.9722 6.88315C19.9103 6.73919 19.8419 6.59809 19.7673 6.46029C19.2565 5.51731 18.3817 4.82662 16.6319 3.44523C13.8503 1.24923 12.4595 0.151232 10.8478 0.0433644C10.6162 0.0278629 10.3838 0.0278629 10.1522 0.0433644C8.54052 0.151232 7.14972 1.24923 4.36812 3.44523C2.61837 4.82662 1.74349 5.51731 1.23277 6.46029C1.15813 6.59809 1.08976 6.73919 1.02785 6.88315ZM14.3542 18.9167C14.3542 18.4106 14.2545 17.9094 14.0608 17.4418C13.8671 16.9742 13.5832 16.5493 13.2253 16.1914C12.8674 15.8335 12.4426 15.5497 11.9749 15.356C11.5073 15.1623 11.0062 15.0626 10.5 15.0626C9.99388 15.0626 9.4927 15.1623 9.02509 15.356C8.55749 15.5497 8.13261 15.8335 7.77471 16.1914C7.41682 16.5493 7.13292 16.9742 6.93923 17.4418C6.74554 17.9094 6.64585 18.4106 6.64585 18.9167H8.10419C8.10419 18.6021 8.16616 18.2906 8.28656 17.9999C8.40696 17.7092 8.58344 17.4451 8.80591 17.2226C9.02838 17.0002 9.2925 16.8237 9.58317 16.7033C9.87385 16.5829 10.1854 16.5209 10.5 16.5209C10.8146 16.5209 11.1262 16.5829 11.4169 16.7033C11.7075 16.8237 11.9717 17.0002 12.1941 17.2226C12.4166 17.4451 12.5931 17.7092 12.7135 17.9999C12.8339 18.2906 12.8959 18.6021 12.8959 18.9167H14.3542Z" fill="white"/>
</svg>
